<?xml version="1.0" encoding="UTF-8"?>
<svg id="Layer_2" data-name="Layer 2" xmlns="http://www.w3.org/2000/svg" viewBox="0 0 800.59 800.59">
  <defs>
    <style>
      .cls-1 {
        fill: #a98abc;
      }

      .cls-2 {
        fill: #fff;
      }
    </style>
  </defs>
  <g id="Layer_1-2" data-name="Layer 1">
    <g>
      <rect class="cls-1" width="800.59" height="800.59"/>
      <g>
        <path class="cls-2" d="M655.64,565.04v-.02c-4.08-3.14-7.88-6.7-12.45-9.65-54.85-35.63-132.03-28.13-194.98-32.27-39.62-2.62-114.09-7.97-147.43-28.17-18.28-11.06-18.68-21.81-17.2-42.17,2.08-28.94,17.22-59.17,46.09-68.91l1.66.38c29.05,40.29,83.63,50.28,129.99,57.33,50.75,7.7,149.61,9.43,185.75,47.95,1.55,1.64,2.98,3.36,4.3,5.13l-11.56-190.05-187.37-202.53-185.33,127.59-2.02-23.29,25.06-14.18-4.82-45.58-116.46,43.56,9.12,42.53,22.28-7.08v54.69l-62.8,30.37,3.83,387.88,148.55-3.16-32.14-87.03c30.71-1.97,77.8-7.86,87.46,30.68l8.76,54.98,17.22-.38-8.89-55.03c-.83-47.14,83.09-47.88,87.86.07,1.66,16.91,1.1,35.03.34,53.28l16.37-.36.11-50.32c2.02-49.83,90.3-52.63,87.75-.02-.74,15.32-3.99,31.89-7.55,48.64l16.39-.36c2.15-20.74,4.75-41.12,10.82-57.04,11.78-30.82,57.02-26.07,83.92-24.23l-2.64-43.22ZM387.74,319.33c33.42-24.23,76.73-39.04,117.92-41.57-11.53,14.65-23.27,28.98-20.09,49.14,8.53,53.8,111.53,34.65,126.43,95.65,1.12,4.57,1.07,9.45,2.13,14.02-60.38-17.96-125.06-15.18-185.96-30.32-20.51-5.11-46.23-14.2-62.58-27.82-4.05-3.36-12.65-10.88-12.27-15.92,1.16-15.39,22.55-34.58,34.42-43.18ZM630.9,588.96h-21.3c-7.95,0-24.34,6.94-31.53,11.09-3.65,2.11-7.48,7.12-11.09,7.12-3.87,0-11-8.8-15.45-11.78-23.25-15.57-58.21-14.89-80.63,2.08-4.43,3.36-7.68,10.12-13.66,9.72-.83-.07-9.85-9.34-12.36-11.04-25.78-17.69-61.95-15.79-85.78,4.43-2.87,2.46-3.67,6.45-7.1,7.28-3.09.67-13.26-8.78-17.6-11-21.84-11.18-53.08-7.97-77.36-7.97-2.19,0-4.17.9-6.29,1.14-4.03-.92-8.04-25.78-8.33-30.3-1.63-24.43,7.66-55.79,25.64-72.79-1.46,12.16,1.99,19.48,11.02,27.1,35.72,30.15,159.95,35.32,207.79,37.51,46.18,2.13,110.39-7.88,142.1,33.53,1.01,1.3,2.51,1.61,1.93,3.87Z"/>
        <polygon class="cls-2" points="663.1 687.41 630.11 688.13 658.42 610.77 663.1 687.41"/>
        <path class="cls-2" d="M659.32,608.35l-.9,2.42-.13-2.51c.36.02.69.04,1.03.09Z"/>
      </g>
    </g>
  </g>
</svg>